<svg width="263" height="160" viewBox="0 0 263 160" fill="none" xmlns="http://www.w3.org/2000/svg">
<path d="M197.547 80.6192C195.787 80.6192 194.203 80.2832 192.795 79.6112C191.387 78.9072 190.267 77.9312 189.435 76.6832C188.635 75.4352 188.235 73.9632 188.235 72.2672C188.235 70.9552 188.459 69.7872 188.907 68.7632C189.387 67.7072 190.011 66.7312 190.779 65.8352C191.547 64.9392 192.411 64.0912 193.371 63.2912C194.363 62.4912 195.371 61.7072 196.395 60.9392L197.739 59.8832C199.019 58.9232 200.139 58.0272 201.099 57.1952C202.059 56.3632 202.811 55.4992 203.355 54.6032C203.899 53.6752 204.171 52.6512 204.171 51.5312C204.171 49.8992 203.643 48.5712 202.587 47.5472C201.531 46.5232 200.267 46.0112 198.795 46.0112C197.227 46.0112 195.931 46.5552 194.907 47.6432C193.915 48.6992 193.419 50.0112 193.419 51.5792C193.419 52.6992 193.675 53.7552 194.187 54.7472C194.699 55.7392 195.323 56.6512 196.059 57.4832C196.827 58.3152 197.547 59.0832 198.219 59.7872L218.427 80.0432H215.067L196.491 61.5152C195.787 60.8112 195.003 59.9792 194.139 59.0192C193.307 58.0272 192.571 56.9072 191.931 55.6592C191.323 54.4112 191.019 53.0512 191.019 51.5792C191.019 50.0752 191.355 48.7312 192.027 47.5472C192.731 46.3632 193.659 45.4352 194.811 44.7632C195.995 44.0592 197.323 43.7072 198.795 43.7072C200.203 43.7072 201.499 44.0432 202.683 44.7152C203.867 45.3872 204.811 46.3152 205.515 47.4992C206.219 48.6512 206.571 49.9952 206.571 51.5312C206.571 53.0672 206.219 54.4432 205.515 55.6592C204.811 56.8432 203.899 57.9152 202.779 58.8752C201.691 59.8352 200.571 60.7632 199.419 61.6592L198.123 62.6672C196.683 63.7552 195.387 64.7792 194.235 65.7392C193.115 66.6992 192.235 67.7072 191.595 68.7632C190.955 69.7872 190.635 70.9552 190.635 72.2672C190.635 74.1232 191.275 75.5952 192.555 76.6832C193.867 77.7712 195.531 78.3152 197.547 78.3152C198.987 78.3152 200.235 78.0592 201.291 77.5472C202.379 77.0352 203.323 76.3792 204.123 75.5792C204.923 74.7472 205.627 73.8832 206.235 72.9872C206.875 72.0592 207.451 71.1952 207.963 70.3952L213.483 62.1392H216.363L209.979 71.7392C209.467 72.5392 208.843 73.4512 208.107 74.4752C207.403 75.4672 206.571 76.4432 205.611 77.4032C204.651 78.3312 203.499 79.0992 202.155 79.7072C200.843 80.3152 199.307 80.6192 197.547 80.6192ZM232.188 80.6192C230.428 80.6192 228.844 80.2832 227.436 79.6112C226.028 78.9072 224.908 77.9312 224.076 76.6832C223.276 75.4352 222.876 73.9632 222.876 72.2672C222.876 70.9552 223.1 69.7872 223.548 68.7632C224.028 67.7072 224.652 66.7312 225.42 65.8352C226.188 64.9392 227.052 64.0912 228.012 63.2912C229.004 62.4912 230.012 61.7072 231.036 60.9392L232.38 59.8832C233.66 58.9232 234.78 58.0272 235.74 57.1952C236.7 56.3632 237.452 55.4992 237.996 54.6032C238.54 53.6752 238.812 52.6512 238.812 51.5312C238.812 49.8992 238.284 48.5712 237.228 47.5472C236.172 46.5232 234.908 46.0112 233.436 46.0112C231.868 46.0112 230.572 46.5552 229.548 47.6432C228.556 48.6992 228.06 50.0112 228.06 51.5792C228.06 52.6992 228.316 53.7552 228.828 54.7472C229.34 55.7392 229.964 56.6512 230.7 57.4832C231.468 58.3152 232.188 59.0832 232.859 59.7872L253.068 80.0432H249.708L231.132 61.5152C230.428 60.8112 229.644 59.9792 228.78 59.0192C227.948 58.0272 227.212 56.9072 226.572 55.6592C225.964 54.4112 225.66 53.0512 225.66 51.5792C225.66 50.0752 225.996 48.7312 226.668 47.5472C227.372 46.3632 228.3 45.4352 229.452 44.7632C230.636 44.0592 231.964 43.7072 233.436 43.7072C234.844 43.7072 236.14 44.0432 237.324 44.7152C238.508 45.3872 239.452 46.3152 240.156 47.4992C240.86 48.6512 241.212 49.9952 241.212 51.5312C241.212 53.0672 240.86 54.4432 240.156 55.6592C239.452 56.8432 238.54 57.9152 237.42 58.8752C236.332 59.8352 235.212 60.7632 234.06 61.6592L232.764 62.6672C231.324 63.7552 230.028 64.7792 228.876 65.7392C227.756 66.6992 226.876 67.7072 226.236 68.7632C225.596 69.7872 225.276 70.9552 225.276 72.2672C225.276 74.1232 225.916 75.5952 227.196 76.6832C228.508 77.7712 230.172 78.3152 232.188 78.3152C233.628 78.3152 234.876 78.0592 235.932 77.5472C237.02 77.0352 237.964 76.3792 238.764 75.5792C239.564 74.7472 240.268 73.8832 240.876 72.9872C241.516 72.0592 242.092 71.1952 242.604 70.3952L248.124 62.1392H251.004L244.62 71.7392C244.108 72.5392 243.484 73.4512 242.748 74.4752C242.044 75.4672 241.212 76.4432 240.252 77.4032C239.292 78.3312 238.14 79.0992 236.796 79.7072C235.484 80.3152 233.948 80.6192 232.188 80.6192Z" fill="#97CF8D"/>
<path d="M5.148 81V22.89H29.718C33.722 22.89 37.154 23.566 40.014 24.918C42.874 26.27 45.058 28.22 46.566 30.768C48.074 33.264 48.828 36.306 48.828 39.894C48.828 42.442 48.126 44.886 46.722 47.226C45.318 49.514 43.004 51.438 39.78 52.998V47.07C42.848 48.266 45.214 49.696 46.878 51.36C48.542 53.024 49.686 54.844 50.31 56.82C50.934 58.744 51.246 60.772 51.246 62.904C51.246 68.624 49.348 73.07 45.552 76.242C41.756 79.414 36.478 81 29.718 81H5.148ZM17.238 70.47H31.122C33.566 70.47 35.516 69.768 36.972 68.364C38.428 66.96 39.156 65.14 39.156 62.904C39.156 60.616 38.428 58.77 36.972 57.366C35.516 55.962 33.566 55.26 31.122 55.26H17.238V70.47ZM17.238 44.73H30.576C32.448 44.73 33.93 44.21 35.022 43.17C36.166 42.078 36.738 40.648 36.738 38.88C36.738 37.112 36.166 35.708 35.022 34.668C33.93 33.576 32.448 33.03 30.576 33.03H17.238V44.73ZM64.7735 98.16C63.5255 98.16 62.3035 98.056 61.1075 97.848C59.9635 97.64 58.9495 97.302 58.0655 96.834V87.24C58.7935 87.448 59.6515 87.63 60.6395 87.786C61.6275 87.942 62.5375 88.02 63.3695 88.02C65.6575 88.02 67.2955 87.474 68.2835 86.382C69.2715 85.342 70.0775 84.146 70.7015 82.794L73.5875 76.164L73.4315 85.914L54.7115 38.412H67.2695L79.6715 72.186H74.9915L87.3935 38.412H99.9515L81.6995 84.978C80.5555 87.89 79.1515 90.334 77.4875 92.31C75.8235 94.286 73.9255 95.742 71.7935 96.678C69.7135 97.666 67.3735 98.16 64.7735 98.16ZM125.579 81.468C120.431 81.468 116.427 80.09 113.567 77.334C110.759 74.526 109.355 70.626 109.355 65.634V48.552H102.179V38.412H102.569C104.753 38.412 106.417 37.866 107.561 36.774C108.757 35.682 109.355 34.044 109.355 31.86V28.74H121.055V38.412H131.039V48.552H121.055V64.854C121.055 66.31 121.315 67.532 121.835 68.52C122.355 69.456 123.161 70.158 124.253 70.626C125.345 71.094 126.697 71.328 128.309 71.328C128.673 71.328 129.089 71.302 129.557 71.25C130.025 71.198 130.519 71.146 131.039 71.094V81C130.259 81.104 129.375 81.208 128.387 81.312C127.399 81.416 126.463 81.468 125.579 81.468ZM158.409 81.936C153.885 81.936 149.959 80.948 146.631 78.972C143.303 76.944 140.729 74.24 138.909 70.86C137.089 67.48 136.179 63.736 136.179 59.628C136.179 55.364 137.115 51.568 138.987 48.24C140.911 44.912 143.485 42.286 146.709 40.362C149.933 38.438 153.573 37.476 157.629 37.476C161.009 37.476 163.999 38.022 166.599 39.114C169.199 40.154 171.383 41.636 173.151 43.56C174.971 45.484 176.349 47.72 177.285 50.268C178.221 52.764 178.689 55.494 178.689 58.458C178.689 59.29 178.637 60.122 178.533 60.954C178.481 61.734 178.351 62.41 178.143 62.982H146.241V54.402H171.513L165.975 58.458C166.495 56.222 166.469 54.246 165.897 52.53C165.325 50.762 164.311 49.384 162.855 48.396C161.451 47.356 159.709 46.836 157.629 46.836C155.601 46.836 153.859 47.33 152.403 48.318C150.947 49.306 149.855 50.762 149.127 52.686C148.399 54.61 148.113 56.95 148.269 59.706C148.061 62.098 148.347 64.204 149.127 66.024C149.907 67.844 151.103 69.274 152.715 70.314C154.327 71.302 156.277 71.796 158.565 71.796C160.645 71.796 162.413 71.38 163.869 70.548C165.377 69.716 166.547 68.572 167.379 67.116L176.739 71.562C175.907 73.642 174.581 75.462 172.761 77.022C170.993 78.582 168.887 79.804 166.443 80.688C163.999 81.52 161.321 81.936 158.409 81.936Z" fill="white"/>
<path d="M99.3335 140.117V82.0073H123.904C127.908 82.0073 131.34 82.6833 134.2 84.0353C137.06 85.3873 139.244 87.3373 140.752 89.8853C142.26 92.3813 143.014 95.4233 143.014 99.0113C143.014 101.559 142.312 104.003 140.908 106.343C139.504 108.631 137.19 110.555 133.966 112.115V106.187C137.034 107.383 139.4 108.813 141.064 110.477C142.728 112.141 143.872 113.961 144.496 115.937C145.12 117.861 145.432 119.889 145.432 122.021C145.432 127.741 143.534 132.187 139.738 135.359C135.942 138.531 130.664 140.117 123.904 140.117H99.3335ZM111.424 129.587H125.308C127.752 129.587 129.702 128.885 131.158 127.481C132.614 126.077 133.342 124.257 133.342 122.021C133.342 119.733 132.614 117.887 131.158 116.483C129.702 115.079 127.752 114.377 125.308 114.377H111.424V129.587ZM111.424 103.847H124.762C126.634 103.847 128.116 103.327 129.208 102.287C130.352 101.195 130.924 99.7653 130.924 97.9973C130.924 96.2293 130.352 94.8253 129.208 93.7853C128.116 92.6933 126.634 92.1473 124.762 92.1473H111.424V103.847ZM152.329 140.117V97.5293H164.029V140.117H152.329ZM152.329 93.7073V82.0073H164.029V93.7073H152.329ZM193.105 140.585C187.957 140.585 183.953 139.207 181.093 136.451C178.285 133.643 176.881 129.743 176.881 124.751V107.669H169.705V97.5293H170.095C172.279 97.5293 173.943 96.9833 175.087 95.8913C176.283 94.7993 176.881 93.1613 176.881 90.9773V87.8573H188.581V97.5293H198.565V107.669H188.581V123.971C188.581 125.427 188.841 126.649 189.361 127.637C189.881 128.573 190.687 129.275 191.779 129.743C192.871 130.211 194.223 130.445 195.835 130.445C196.199 130.445 196.615 130.419 197.083 130.367C197.551 130.315 198.045 130.263 198.565 130.211V140.117C197.785 140.221 196.901 140.325 195.913 140.429C194.925 140.533 193.989 140.585 193.105 140.585ZM225.935 141.053C221.411 141.053 217.485 140.065 214.157 138.089C210.829 136.061 208.255 133.357 206.435 129.977C204.615 126.597 203.705 122.853 203.705 118.745C203.705 114.481 204.641 110.685 206.513 107.357C208.437 104.029 211.011 101.403 214.235 99.4793C217.459 97.5553 221.099 96.5933 225.155 96.5933C228.535 96.5933 231.525 97.1393 234.125 98.2313C236.725 99.2713 238.909 100.753 240.677 102.677C242.497 104.601 243.875 106.837 244.811 109.385C245.747 111.881 246.215 114.611 246.215 117.575C246.215 118.407 246.163 119.239 246.059 120.071C246.007 120.851 245.877 121.527 245.669 122.099H213.767V113.519H239.039L233.501 117.575C234.021 115.339 233.995 113.363 233.423 111.647C232.851 109.879 231.837 108.501 230.381 107.513C228.977 106.473 227.235 105.953 225.155 105.953C223.127 105.953 221.385 106.447 219.929 107.435C218.473 108.423 217.381 109.879 216.653 111.803C215.925 113.727 215.639 116.067 215.795 118.823C215.587 121.215 215.873 123.321 216.653 125.141C217.433 126.961 218.629 128.391 220.241 129.431C221.853 130.419 223.803 130.913 226.091 130.913C228.171 130.913 229.939 130.497 231.395 129.665C232.903 128.833 234.073 127.689 234.905 126.233L244.265 130.679C243.433 132.759 242.107 134.579 240.287 136.139C238.519 137.699 236.413 138.921 233.969 139.805C231.525 140.637 228.847 141.053 225.935 141.053Z" fill="white"/>
<path d="M24.967 121.372L28.6093 117.888L30.5434 119.533C42.7672 129.904 55.0324 136.215 69.4658 139.431C71.4132 134.646 71.5858 129.38 69.9041 124.242C67.6728 117.424 62.4765 111.485 54.8813 107.066C48.1992 103.178 42.1645 102.267 35.7746 101.303C32.2683 100.774 28.6359 100.226 24.6764 99.1452C17.4083 97.1594 9.78649 91.2587 9.71012 91.2004L5.54645 87.9465L5.31403 92.9081C5.29743 93.2909 4.91227 102.414 7.67477 115.005C10.5933 128.313 16.0154 138.31 23.7899 144.707C30.0985 149.894 38.3362 152.767 46.5224 152.767C48.0662 152.768 49.6078 152.664 51.1343 152.457C58.0605 151.512 63.8229 148.379 67.0718 143.822C52.2134 140.341 39.5216 133.721 26.8961 123.012L24.967 121.372Z" fill="#ECF9EB"/>
<path d="M77.6085 140.887C74.8124 140.5 72.1043 140.014 69.4677 139.425C68.925 140.758 68.2505 142.044 67.4525 143.268C67.3295 143.455 67.2016 143.641 67.072 143.823C70.2783 144.571 73.525 145.171 76.7994 145.619L79.4277 145.984L80.2351 141.251L77.6085 140.887Z" fill="#ECF9EB"/>
</svg>
